<?xml version="1.0" encoding="utf-8"?>
<!-- Generator: Adobe Illustrator 23.0.4, SVG Export Plug-In . SVG Version: 6.00 Build 0)  -->
<svg version="1.1" id="Layer_1" xmlns="http://www.w3.org/2000/svg" xmlns:xlink="http://www.w3.org/1999/xlink" x="0px" y="0px"
	 viewBox="0 0 1024 1024.5" style="enable-background:new 0 0 1024 1024.5;" xml:space="preserve">
<style type="text/css">
	.st0{fill:#DE4B5F;}
	.st1{font-family:'Lato-Black';}
	.st2{font-size:89.72px;}
	.st3{font-size:90.0826px;}
	.st4{font-size:90.1228px;}
	.st5{font-size:89.9753px;}
	.st6{font-size:132.5202px;}
	.st7{font-size:133.02px;}
	.st8{font-size:133.0466px;}
</style>
<title>Logo</title>
<image style="overflow:visible;enable-background:new    ;" width="4268" height="4270" xlink:href="202B5E0AC17B4092.png"  transform="matrix(0.24 0 0 0.24 -0.24 -0.23)">
</image>
<text transform="matrix(0.3696 0.9614 -0.9334 0.3589 226.4704 516.3901)" class="st0 st1 st2">D</text>
<text transform="matrix(0.6114 0.8289 -0.8048 0.5936 262.3999 598.5493)" class="st0 st1 st2">e</text>
<text transform="matrix(0.7689 0.6853 -0.6654 0.7465 304.1501 651.2999)" class="st0 st1 st2">s</text>
<text transform="matrix(0.8666 0.5567 -0.5405 0.8413 347.6 687.5401)" class="st0 st1 st2">i</text>
<text transform="matrix(0.9489 0.4006 -0.389 0.9213 382.1394 709.3298)" class="st0 st1 st2">g</text>
<text transform="matrix(1.0137 0.1826 -0.1773 0.9842 445.0901 733.91)" class="st0 st1 st2">n</text>
<text transform="matrix(1.0185 -0.1533 0.1488 0.9889 547.1399 744.2398)" class="st0 st1 st2">T</text>
<text transform="matrix(0.9695 -0.3477 0.3376 0.9413 608.73 734.2401)" class="st0 st1 st2">o</text>
<text transform="matrix(0.8565 -0.5577 0.5478 0.8366 675.9695 707.8297)" class="st0 st1 st3">o</text>
<text transform="matrix(0.7466 -0.7068 0.6869 0.7267 733.0502 667.3496)" class="st0 st1 st4">l</text>
<text transform="matrix(0.6118 -0.8286 0.8045 0.594 762.3201 639.4209)" class="st0 st1 st2">k</text>
<text transform="matrix(0.4497 -0.9266 0.8996 0.4366 800.5103 583.0703)" class="st0 st1 st2">i</text>
<text transform="matrix(0.2991 -0.9772 0.9573 0.2892 817.3298 546.6296)" class="st0 st1 st5">t</text>
<text transform="matrix(0.2911 -0.9134 0.9536 0.3011 288.8197 457.6789)" class="st0 st1 st6">J</text>
<text transform="matrix(0.5162 -0.7975 0.8395 0.5433 306.5496 400.0604)" class="st0 st1 st7">o</text>
<text transform="matrix(0.7359 -0.6008 0.6324 0.7746 350.6102 333.76)" class="st0 st1 st7">u</text>
<text transform="matrix(0.8723 -0.3764 0.3962 0.9182 413.0694 285.9797)" class="st0 st1 st7">r</text>
<text transform="matrix(0.943 -0.1151 0.1212 0.9926 463.25 263.4801)" class="st0 st1 st7">n</text>
<text transform="matrix(0.9298 0.19 -0.2 0.9798 540.7898 255.4501)" class="st0 st1 st8">a</text>
<text transform="matrix(0.8601 0.4034 -0.4247 0.9053 611.4202 272.4299)" class="st0 st1 st7">l</text>
<text transform="matrix(0.7763 0.5476 -0.5764 0.8171 648.7889 290.7799)" class="st0 st1 st7">i</text>
<text transform="matrix(0.6424 0.6999 -0.7367 0.6762 683.1307 314.6098)" class="st0 st1 st7">s</text>
<text transform="matrix(0.3726 0.8739 -0.9199 0.3922 727.9192 358.6001)" class="st0 st1 st7">m</text>
<g id="UlXyQF.tif">
	
		<image style="overflow:visible;enable-background:new    ;" width="703" height="584" id="Layer_1-2" xlink:href="202B5E0AC17B4097.png"  transform="matrix(0.4586 0 0 0.5351 383.4115 323.05)">
	</image>
</g>
</svg>
