<svg id="Layer_1" data-name="Layer 1" xmlns="http://www.w3.org/2000/svg" xmlns:xlink="http://www.w3.org/1999/xlink" viewBox="0 0 1024.56 1024.56"><defs><style>.cls-1,.cls-10,.cls-11,.cls-12,.cls-13,.cls-14,.cls-15,.cls-16,.cls-17,.cls-18,.cls-19,.cls-2,.cls-3,.cls-4,.cls-5,.cls-6,.cls-7,.cls-8,.cls-9{isolation:isolate;}.cls-2{font-size:89.72px;}.cls-10,.cls-11,.cls-12,.cls-13,.cls-14,.cls-15,.cls-16,.cls-17,.cls-18,.cls-19,.cls-2,.cls-3,.cls-4,.cls-5,.cls-6,.cls-7,.cls-8,.cls-9{fill:#de4b5f;font-family:Lato-Black, Lato;font-weight:800;}.cls-3{font-size:89.72px;}.cls-4{font-size:89.72px;}.cls-5{font-size:89.73px;}.cls-6{font-size:89.72px;}.cls-7{font-size:89.72px;letter-spacing:-0.03em;}.cls-8{font-size:90.08px;}.cls-9{font-size:90.12px;}.cls-10{font-size:89.72px;}.cls-11{font-size:89.98px;}.cls-12{font-size:132.52px;}.cls-13{font-size:133.02px;}.cls-14{font-size:133.02px;}.cls-15{font-size:133.02px;letter-spacing:-0.02em;}.cls-16{font-size:133.02px;}.cls-17{font-size:133.05px;}.cls-18{font-size:133.02px;}.cls-19{font-size:133.01px;}.cls-20{fill:#fff;stroke:#000;stroke-miterlimit:10;}</style></defs><title>Logo-copy</title><image class="cls-1" width="4275" height="4275" transform="scale(0.24)" xlink:href="202B5E0AC17B4092.png"/><text class="cls-2" transform="matrix(0.37, 0.96, -0.93, 0.36, 226.83, 516.5)">D</text><text class="cls-3" transform="matrix(0.61, 0.83, -0.8, 0.59, 262.76, 598.66)">e</text><text class="cls-2" transform="matrix(0.77, 0.69, -0.67, 0.75, 304.51, 651.41)">s</text><text class="cls-4" transform="matrix(0.87, 0.56, -0.54, 0.84, 347.96, 687.65)">i</text><text class="cls-5" transform="matrix(0.95, 0.4, -0.39, 0.92, 382.5, 709.44)">g</text><text class="cls-6" transform="matrix(1.01, 0.18, -0.18, 0.98, 445.45, 734.02)">n</text><text class="cls-7" transform="matrix(1.02, -0.15, 0.15, 0.99, 547.5, 744.35)">T</text><text class="cls-2" transform="matrix(0.97, -0.35, 0.34, 0.94, 609.09, 734.35)">o</text><text class="cls-8" transform="matrix(0.86, -0.56, 0.55, 0.84, 676.33, 707.94)">o</text><text class="cls-9" transform="matrix(0.75, -0.71, 0.69, 0.73, 733.41, 667.46)">l</text><text class="cls-2" transform="matrix(0.61, -0.83, 0.8, 0.59, 762.68, 639.53)">k</text><text class="cls-10" transform="matrix(0.45, -0.93, 0.9, 0.44, 800.87, 583.18)">i</text><text class="cls-11" transform="matrix(0.3, -0.98, 0.96, 0.29, 817.69, 546.74)">t</text><text class="cls-12" transform="matrix(0.29, -0.91, 0.95, 0.3, 289.18, 457.79)">J</text><text class="cls-13" transform="matrix(0.52, -0.8, 0.84, 0.54, 306.91, 400.17)">o</text><text class="cls-14" transform="matrix(0.74, -0.6, 0.63, 0.77, 350.97, 333.87)">u</text><text class="cls-15" transform="matrix(0.87, -0.38, 0.4, 0.92, 413.43, 286.09)">r</text><text class="cls-16" transform="matrix(0.94, -0.12, 0.12, 0.99, 463.61, 263.59)">n</text><text class="cls-17" transform="matrix(0.93, 0.19, -0.2, 0.98, 541.15, 255.56)">a</text><text class="cls-18" transform="matrix(0.86, 0.4, -0.42, 0.91, 611.78, 272.54)">l</text><text class="cls-19" transform="matrix(0.78, 0.55, -0.58, 0.82, 649.15, 290.89)">i</text><text class="cls-16" transform="matrix(0.64, 0.7, -0.74, 0.68, 683.49, 314.72)">s</text><text class="cls-16" transform="matrix(0.37, 0.87, -0.92, 0.39, 728.28, 358.71)">m</text><g id="UlXyQF.tif"><image id="Layer_1-2" data-name="Layer 1-2" class="cls-1" width="704" height="685" transform="translate(394.77 308.89) scale(0.43 0.5)" xlink:href="202B5E0AC17B4097.png"/></g><path class="cls-20" d="M431,321" transform="translate(0.36 0.11)"/></svg>